<svg version="1.1" id="Layer_1" xmlns="http://www.w3.org/2000/svg" xmlns:xlink="http://www.w3.org/1999/xlink" x="0px" y="0px"
	 width="100%" viewBox="0 0 184 184" enable-background="new 0 0 184 184" xml:space="preserve">
<path fill="#349679" opacity="1.000000" stroke="none" 
	d="
M1.000000,79.000000 
	C1.000000,63.312439 1.000000,47.624878 1.365999,31.605026 
	C2.449832,30.205738 3.689934,29.190250 3.801084,28.063406 
	C4.544992,20.521595 10.334251,16.197464 15.052978,11.724297 
	C19.873085,7.155022 26.207865,4.179795 33.233856,3.223887 
	C33.604435,3.220238 33.834179,3.115921 34.013657,2.988267 
	C33.976753,3.034368 33.883244,2.962222 34.360062,2.992999 
	C38.666058,2.940464 42.502663,2.670305 46.322502,2.822084 
	C50.890919,3.003608 55.445004,3.545837 59.649948,4.010053 
	C51.842358,6.869864 45.825001,11.277065 42.349312,19.055889 
	C40.829834,21.554815 39.549400,23.832415 37.884872,26.096680 
	C36.307201,26.581345 34.974720,26.881779 33.941658,27.608091 
	C24.263758,34.412296 17.848892,43.903625 12.930332,54.369701 
	C9.669871,61.307545 7.287796,68.658188 4.467958,75.939056 
	C7.457733,76.918732 9.171324,77.480240 10.915596,78.148666 
	C10.946276,78.255585 11.021688,78.464882 10.626437,78.557060 
	C9.155033,78.771957 8.078879,78.894684 6.708389,78.917664 
	C4.943878,78.891563 3.473704,78.965210 1.753801,78.999367 
	C1.336048,78.973244 1.168024,78.986626 1.000000,79.000000 
z"/>
<path fill="#339679" opacity="1.000000" stroke="none" 
	d="
M158.000000,185.000000 
	C147.979111,185.000000 137.958206,185.000000 127.657310,184.718353 
	C130.671738,181.849899 133.966171,179.263077 137.582153,176.525635 
	C140.037354,172.945068 142.171005,169.515106 144.497864,165.812973 
	C145.158112,164.032028 145.625168,162.523270 146.482620,161.010406 
	C149.039581,160.046677 151.632248,159.558044 153.301117,158.048248 
	C161.862000,150.303360 168.779099,141.086044 173.281113,130.556854 
	C175.986404,124.229820 176.511581,116.970634 178.257965,110.059601 
	C178.660812,109.943207 178.822220,109.897598 179.361176,109.906654 
	C180.498184,110.026939 181.257675,110.092552 182.012299,110.616882 
	C181.690475,124.827126 181.327133,138.578003 181.136795,152.331268 
	C181.119949,153.548752 182.231522,154.781845 182.892899,156.397690 
	C182.608780,158.348801 182.550659,160.063110 181.844177,161.446274 
	C177.166794,170.603622 171.232697,178.510010 160.948196,182.075623 
	C159.769211,182.484344 158.973434,183.998413 158.000000,185.000000 
z"/>
<path fill="#329578" opacity="1.000000" stroke="none" 
	d="
M77.000000,185.000000 
	C60.645771,185.000000 44.291542,185.000000 27.652363,184.656784 
	C25.890245,183.362015 24.383625,182.452850 22.941792,181.450470 
	C19.489660,179.050522 15.679920,177.000519 12.724969,174.088364 
	C8.283227,169.710968 4.046056,164.982224 2.875057,158.408356 
	C2.774784,157.845428 1.649256,157.465134 1.000001,157.000000 
	C1.000000,147.645767 1.000000,138.291550 1.347690,128.490234 
	C3.653968,130.737122 5.612556,133.431091 7.701183,136.454742 
	C11.521359,139.605484 15.211497,142.426559 19.151203,145.467972 
	C20.867085,146.151016 22.333397,146.613708 23.861656,147.288223 
	C23.923601,147.500031 24.030870,147.928314 24.023609,148.328949 
	C24.938360,150.913300 25.337227,153.594559 26.865612,155.201553 
	C38.494301,167.428375 52.115093,176.573944 68.698318,180.663849 
	C71.294029,181.304016 74.140495,180.927414 76.925911,181.416107 
	C76.987206,182.874161 76.993599,183.937073 77.000000,185.000000 
z"/>
<path fill="#000000" opacity="1.000000" stroke="none" 
	d="
M152.000000,0.999999 
	C162.927658,1.000000 173.855331,1.000000 185.000000,1.000000 
	C185.000000,12.019946 185.000000,23.041315 184.772995,34.876572 
	C184.050247,35.458454 183.554520,35.226448 183.024445,34.659691 
	C182.932449,33.881672 182.874756,33.438400 182.875748,32.625317 
	C179.193054,19.070396 170.092651,10.749387 157.983368,4.654732 
	C155.858292,3.218619 153.929153,2.109309 152.000000,0.999999 
z"/>
<path fill="#000000" opacity="1.000000" stroke="none" 
	d="
M33.106380,3.192658 
	C26.207865,4.179795 19.873085,7.155022 15.052978,11.724297 
	C10.334251,16.197464 4.544992,20.521595 3.801084,28.063406 
	C3.689934,29.190250 2.449832,30.205738 1.365999,31.136370 
	C1.000000,21.069969 1.000000,11.139938 1.000000,1.000000 
	C11.686646,1.000000 22.374664,1.000000 33.884216,1.238836 
	C34.431576,1.972522 34.157410,2.467372 33.883244,2.962222 
	C33.883244,2.962222 33.976753,3.034368 33.773903,3.038624 
	C33.571053,3.042879 33.106380,3.192658 33.106380,3.192658 
z"/>
<path fill="#75E6B6" opacity="1.000000" stroke="none" 
	d="
M77.468658,185.000000 
	C76.993599,183.937073 76.987206,182.874161 77.003494,181.076309 
	C77.125175,179.888199 77.224159,179.435013 77.696167,178.957840 
	C85.782043,178.956268 93.497009,179.103210 101.207230,178.971924 
	C112.772797,178.774963 123.372215,175.027954 133.126175,169.112839 
	C136.727875,166.928635 140.138016,165.492188 144.304657,166.085159 
	C142.171005,169.515106 140.037354,172.945068 137.507019,176.098450 
	C136.660248,173.105499 135.275879,172.854538 132.836838,173.755646 
	C126.556908,176.075790 120.096001,177.922195 113.882538,180.397522 
	C111.662804,181.281830 109.946228,183.429153 108.000000,185.000000 
	C97.979103,185.000000 87.958214,185.000000 77.468658,185.000000 
z"/>
<path fill="#000000" opacity="1.000000" stroke="none" 
	d="
M158.468658,185.000000 
	C158.973434,183.998413 159.769211,182.484344 160.948196,182.075623 
	C171.232697,178.510010 177.166794,170.603622 181.844177,161.446274 
	C182.550659,160.063110 182.608780,158.348801 182.978928,156.040344 
	C183.660690,154.862015 184.330338,154.431000 185.000000,154.000000 
	C185.000000,164.254745 185.000000,174.509491 185.000000,185.000000 
	C176.313858,185.000000 167.625580,185.000000 158.468658,185.000000 
z"/>
<path fill="#000000" opacity="1.000000" stroke="none" 
	d="
M1.000001,157.468658 
	C1.649256,157.465134 2.774784,157.845428 2.875057,158.408356 
	C4.046056,164.982224 8.283227,169.710968 12.724969,174.088364 
	C15.679920,177.000519 19.489660,179.050522 22.941792,181.450470 
	C24.383625,182.452850 25.890245,183.362015 27.183704,184.656784 
	C18.404175,185.000000 9.808352,185.000000 1.000000,185.000000 
	C1.000000,175.980209 1.000000,166.958771 1.000001,157.468658 
z"/>
<path fill="#6FE4B2" opacity="1.000000" stroke="none" 
	d="
M108.468269,185.000000 
	C109.946228,183.429153 111.662804,181.281830 113.882538,180.397522 
	C120.096001,177.922195 126.556908,176.075790 132.836838,173.755646 
	C135.275879,172.854538 136.660248,173.105499 137.185486,176.249054 
	C133.966171,179.263077 130.671738,181.849899 127.188652,184.718353 
	C120.978844,185.000000 114.957695,185.000000 108.468269,185.000000 
z"/>
<path fill="#6FE3B1" opacity="1.000000" stroke="none" 
	d="
M7.571145,136.125061 
	C5.612556,133.431091 3.653968,130.737122 1.347690,128.021576 
	C1.000000,126.285645 1.000000,124.571281 1.232639,122.116562 
	C1.644774,119.251221 1.824270,117.126244 2.339637,115.101463 
	C5.392672,120.924461 8.249740,126.590141 10.641065,132.445999 
	C10.924030,133.138916 8.656431,134.873398 7.571145,136.125061 
z"/>
<path fill="#298F71" opacity="1.000000" stroke="none" 
	d="
M185.000000,153.562500 
	C184.330338,154.431000 183.660690,154.862015 182.905014,155.650360 
	C182.231522,154.781845 181.119949,153.548752 181.136795,152.331268 
	C181.327133,138.578003 181.690475,124.827126 182.235260,110.586304 
	C182.463074,110.097008 182.908081,110.163643 183.108765,110.523224 
	C183.548920,121.041138 183.746201,131.200806 184.065689,141.356613 
	C184.125107,143.245682 184.675964,145.119263 185.000000,147.000000 
	C185.000000,149.041672 185.000000,151.083328 185.000000,153.562500 
z"/>
<path fill="#75B2A0" opacity="1.000000" stroke="none" 
	d="
M151.531342,0.999999 
	C153.929153,2.109309 155.858292,3.218619 157.726440,4.885657 
	C141.294189,0.725876 124.558167,3.516956 107.877220,3.014049 
	C107.773018,2.998563 107.572113,2.935136 107.672470,2.619222 
	C107.848549,1.868872 107.924278,1.434437 108.000000,1.000000 
	C122.354225,1.000000 136.708450,1.000000 151.531342,0.999999 
z"/>
<path fill="#76BEAA" opacity="1.000000" stroke="none" 
	d="
M34.360062,2.992999 
	C34.157410,2.467372 34.431576,1.972522 34.352875,1.238836 
	C47.354229,1.000000 60.708454,1.000000 74.525169,1.324459 
	C74.987984,2.081599 74.988319,2.514280 74.527710,2.950660 
	C69.379616,3.280185 64.692459,3.606010 60.005295,3.931835 
	C55.445004,3.545837 50.890919,3.003608 46.322502,2.822084 
	C42.502663,2.670305 38.666058,2.940464 34.360062,2.992999 
z"/>
<path fill="#98E0BE" opacity="1.000000" stroke="none" 
	d="
M74.988647,2.946960 
	C74.988319,2.514280 74.987984,2.081599 74.993828,1.324459 
	C85.687561,1.000000 96.375122,1.000000 107.531342,1.000000 
	C107.924278,1.434437 107.848549,1.868872 107.357254,2.633295 
	C106.297554,2.982521 105.653419,3.001760 104.539780,3.010107 
	C94.376396,2.981797 84.682526,2.964379 74.988647,2.946960 
z"/>
<path fill="#98E0BE" opacity="1.000000" stroke="none" 
	d="
M185.000000,65.000000 
	C185.000000,79.687561 185.000000,94.375122 184.750122,109.508995 
	C184.333893,109.937691 184.167572,109.920082 184.000107,109.444122 
	C184.023575,94.402878 184.048203,79.819984 184.307190,65.187912 
	C184.541565,65.138725 185.000000,65.000000 185.000000,65.000000 
z"/>
<path fill="#79D8B0" opacity="1.000000" stroke="none" 
	d="
M2.003767,115.001266 
	C1.824270,117.126244 1.644774,119.251221 1.232639,121.688095 
	C1.000000,107.979103 1.000000,93.958214 1.000000,79.468658 
	C1.168024,78.986626 1.336048,78.973244 1.753378,79.464294 
	C2.003045,91.646233 2.003406,103.323753 2.003767,115.001266 
z"/>
<path fill="#64A894" opacity="1.000000" stroke="none" 
	d="
M184.001251,109.902466 
	C184.167572,109.920082 184.333893,109.937691 184.750122,109.977654 
	C185.000000,122.020897 185.000000,134.041794 185.000000,146.531342 
	C184.675964,145.119263 184.125107,143.245682 184.065689,141.356613 
	C183.746201,131.200806 183.548920,121.041138 183.383087,110.462158 
	C183.638229,109.995171 183.819748,109.948814 184.001251,109.902466 
z"/>
<path fill="#64A894" opacity="1.000000" stroke="none" 
	d="
M185.000000,64.531342 
	C185.000000,65.000000 184.541565,65.138725 184.094925,64.905785 
	C183.457962,63.785835 183.267654,62.898827 183.314606,61.670292 
	C183.387512,52.550655 183.223145,43.772549 183.058777,34.994438 
	C183.554520,35.226448 184.050247,35.458454 184.772995,35.345230 
	C185.000000,44.687561 185.000000,54.375122 185.000000,64.531342 
z"/>
<path fill="#78E6B8" opacity="1.000000" stroke="none" 
	d="
M105.009293,3.020999 
	C105.653419,3.001760 106.297554,2.982521 107.256897,2.949209 
	C107.572113,2.935136 107.773018,2.998563 107.852280,3.409348 
	C108.082581,4.865972 108.233604,5.911810 108.294174,7.385342 
	C108.109268,9.554221 108.014809,11.295406 107.468643,13.029499 
	C104.519608,12.962830 101.992050,13.130893 99.530197,12.804067 
	C89.152992,11.426435 78.939224,12.302909 69.068878,15.566534 
	C60.896275,18.268799 53.130634,21.730463 45.986923,26.976036 
	C41.727055,30.104027 39.010590,32.664227 39.864861,38.281609 
	C39.431831,39.113670 39.137249,39.665356 38.631943,40.156540 
	C38.421219,40.096039 37.992725,40.003029 38.034088,39.559143 
	C37.995216,36.738197 37.914986,34.361145 37.885670,31.565292 
	C38.047375,29.467667 38.158173,27.788839 38.268967,26.110012 
	C39.549400,23.832415 40.829834,21.554815 42.785164,19.095833 
	C45.487801,18.369450 47.896385,18.349516 49.484131,17.197897 
	C64.687057,6.170928 82.030869,5.045723 99.856422,5.888612 
	C102.112625,5.995297 104.806519,6.691618 105.009293,3.020999 
z"/>
<path fill="#79E8B9" opacity="1.000000" stroke="none" 
	d="
M23.799711,147.076416 
	C22.333397,146.613708 20.867085,146.151016 19.176910,145.029816 
	C18.548067,142.123322 18.530073,139.712189 17.664358,137.658401 
	C15.226310,131.874527 12.125009,126.359917 9.853901,120.518051 
	C4.610291,107.030159 4.624935,93.081184 7.002726,79.017403 
	C8.078879,78.894684 9.155033,78.771957 10.622642,78.705154 
	C11.014096,78.761063 10.980562,79.051994 10.986851,79.503937 
	C10.841154,82.924202 10.828456,85.907372 10.513719,88.858330 
	C8.925052,103.753502 12.179649,117.723274 18.448841,131.128647 
	C20.929348,136.432693 23.478985,141.704407 25.631369,146.997833 
	C24.776964,147.028702 24.288338,147.052567 23.799711,147.076416 
z"/>
<path fill="#73E6B5" opacity="1.000000" stroke="none" 
	d="
M6.708389,78.917664 
	C4.624935,93.081184 4.610291,107.030159 9.853901,120.518051 
	C12.125009,126.359917 15.226310,131.874527 17.664358,137.658401 
	C18.530073,139.712189 18.548067,142.123322 18.927343,144.809479 
	C15.211497,142.426559 11.521359,139.605484 7.701184,136.454742 
	C8.656431,134.873398 10.924030,133.138916 10.641065,132.445999 
	C8.249740,126.590141 5.392672,120.924461 2.339637,115.101463 
	C2.003406,103.323753 2.003045,91.646233 2.003108,79.503792 
	C3.473704,78.965210 4.943878,78.891563 6.708389,78.917664 
z"/>
<path fill="#73E2B2" opacity="1.000000" stroke="none" 
	d="
M104.539780,3.010107 
	C104.806519,6.691618 102.112625,5.995297 99.856422,5.888612 
	C82.030869,5.045723 64.687057,6.170928 49.484131,17.197897 
	C47.896385,18.349516 45.487801,18.369450 43.024208,18.874508 
	C45.825001,11.277065 51.842358,6.869864 59.649948,4.010052 
	C64.692459,3.606010 69.379616,3.280185 74.527710,2.950660 
	C84.682526,2.964379 94.376396,2.981797 104.539780,3.010107 
z"/>
<path fill="#349D7E" opacity="1.000000" stroke="none" 
	d="
M37.884876,26.096680 
	C38.158173,27.788839 38.047375,29.467667 37.531471,31.589012 
	C35.495552,32.792061 33.395500,33.139565 32.306400,34.376904 
	C21.222437,46.969574 11.245043,60.167042 10.884916,78.041740 
	C9.171324,77.480240 7.457733,76.918732 4.467958,75.939056 
	C7.287796,68.658188 9.669871,61.307545 12.930332,54.369701 
	C17.848892,43.903625 24.263758,34.412296 33.941658,27.608091 
	C34.974720,26.881779 36.307201,26.581345 37.884876,26.096680 
z"/>
<path fill="#36A584" opacity="1.000000" stroke="none" 
	d="
M10.915596,78.148666 
	C11.245043,60.167042 21.222437,46.969574 32.306400,34.376904 
	C33.395500,33.139565 35.495552,32.792061 37.480560,32.007812 
	C37.914986,34.361145 37.995216,36.738197 37.637024,39.557968 
	C34.864456,41.230137 31.953079,41.950794 30.322653,43.800529 
	C27.401899,47.114155 24.806992,50.890900 22.875713,54.862957 
	C19.222757,62.375988 14.900364,69.758446 14.589943,78.643501 
	C13.124391,78.841354 12.052476,78.946671 10.980562,79.051994 
	C10.980562,79.051994 11.014096,78.761063 11.017892,78.612976 
	C11.021688,78.464882 10.946276,78.255585 10.915596,78.148666 
z"/>
<path fill="#76BEAA" opacity="1.000000" stroke="none" 
	d="
M33.233856,3.223887 
	C33.106380,3.192658 33.571053,3.042879 33.810806,2.992523 
	C33.834179,3.115921 33.604435,3.220238 33.233856,3.223887 
z"/>
<path fill="#35A181" opacity="1.000000" stroke="none" 
	d="
M178.016541,110.130371 
	C176.511581,116.970634 175.986404,124.229820 173.281113,130.556854 
	C168.779099,141.086044 161.862000,150.303360 153.301117,158.048248 
	C151.632248,159.558044 149.039581,160.046677 146.437302,160.610687 
	C146.001694,159.143112 146.001785,158.071167 146.226776,156.707703 
	C146.482513,154.943344 146.513367,153.470505 146.665359,151.753235 
	C146.855530,151.340561 146.924576,151.172318 147.373047,150.999649 
	C149.238373,150.418640 151.162994,150.251663 152.142685,149.202408 
	C162.436691,138.177582 170.895370,126.199554 171.399261,110.156975 
	C172.504257,110.002670 173.243927,109.919807 174.384216,109.892502 
	C175.862076,110.008835 176.939316,110.069603 178.016541,110.130371 
z"/>
<path fill="#79E8B9" opacity="1.000000" stroke="none" 
	d="
M178.257965,110.059601 
	C176.939316,110.069603 175.862076,110.008835 174.388489,109.448837 
	C174.012268,106.794807 173.795364,104.606995 174.089966,102.490395 
	C176.486465,85.273712 172.426392,69.349327 164.570312,54.173645 
	C162.450470,50.078739 160.195038,46.054031 158.406128,42.002304 
	C160.707825,42.271862 162.605240,42.536217 164.789246,42.788132 
	C165.746140,43.099617 166.416412,43.423542 167.071136,44.158607 
	C167.838989,47.069809 168.276001,49.750038 169.466278,52.038471 
	C174.393219,61.511120 178.970917,71.077972 179.072586,82.048164 
	C179.158493,91.315033 179.021820,100.583961 178.983643,109.851982 
	C178.822220,109.897598 178.660812,109.943207 178.257965,110.059601 
z"/>
<path fill="#71E4B3" opacity="1.000000" stroke="none" 
	d="
M179.361176,109.906654 
	C179.021820,100.583961 179.158493,91.315033 179.072586,82.048164 
	C178.970917,71.077972 174.393219,61.511120 169.466278,52.038471 
	C168.276001,49.750038 167.838989,47.069809 167.415161,44.246376 
	C171.103653,46.304840 174.432571,48.686684 177.930603,51.380325 
	C179.758942,55.132023 181.418152,58.571918 183.077332,62.011818 
	C183.267654,62.898827 183.457962,63.785835 183.860565,64.954971 
	C184.048203,79.819984 184.023575,94.402878 184.000107,109.444122 
	C183.819748,109.948814 183.638229,109.995171 183.182404,110.102585 
	C182.908081,110.163643 182.463074,110.097008 182.240112,110.127586 
	C181.257675,110.092552 180.498184,110.026939 179.361176,109.906654 
z"/>
<path fill="#7CE8BB" opacity="1.000000" stroke="none" 
	d="
M146.001877,156.999222 
	C146.001785,158.071167 146.001694,159.143112 146.046906,160.614777 
	C145.625168,162.523270 145.158112,164.032028 144.497864,165.812973 
	C140.138016,165.492188 136.727875,166.928635 133.126175,169.112839 
	C123.372215,175.027954 112.772797,178.774963 101.207230,178.971924 
	C93.497009,179.103210 85.782043,178.956268 77.586540,178.716888 
	C77.039131,178.336075 76.974388,178.172226 76.963501,177.594116 
	C76.970444,175.791626 76.923531,174.403412 76.980270,172.753082 
	C77.161385,172.319778 77.238838,172.148575 77.650826,171.981369 
	C78.654121,171.992477 79.322899,171.999588 80.114769,172.354614 
	C82.003044,173.453629 83.792938,174.899689 85.529198,174.837936 
	C93.947586,174.538483 102.510162,174.656570 110.721893,173.072678 
	C121.823303,170.931412 132.178040,166.380463 141.213135,159.240524 
	C142.559174,158.176804 144.393463,157.730927 146.001877,156.999222 
z"/>
<path fill="#349D7E" opacity="1.000000" stroke="none" 
	d="
M76.909653,178.008392 
	C76.974388,178.172226 77.039131,178.336075 77.213501,178.740875 
	C77.224159,179.435013 77.125175,179.888199 76.948608,180.681183 
	C74.140495,180.927414 71.294029,181.304016 68.698318,180.663849 
	C52.115093,176.573944 38.494301,167.428375 26.865612,155.201553 
	C25.337227,153.594559 24.938360,150.913300 24.244129,148.381500 
	C24.973427,147.987839 25.474941,147.942245 26.350739,147.966766 
	C27.468838,148.185989 28.212656,148.335098 28.968925,148.837570 
	C29.648546,150.781143 29.876177,152.913818 31.056746,153.870407 
	C37.108253,158.773727 43.204845,163.672928 49.666584,168.005478 
	C57.871788,173.506989 66.880920,177.258392 76.909653,178.008392 
z"/>
<path fill="#78E6B8" opacity="1.000000" stroke="none" 
	d="
M25.976458,147.896667 
	C25.474941,147.942245 24.973427,147.987839 24.251390,147.980865 
	C24.030870,147.928314 23.923601,147.500031 23.861656,147.288239 
	C24.288338,147.052567 24.776964,147.028702 25.632965,147.224518 
	C26.000341,147.444183 25.976458,147.896667 25.976458,147.896667 
z"/>
<path fill="#329578" opacity="1.000000" stroke="none" 
	d="
M177.761475,51.068527 
	C174.432571,48.686684 171.103653,46.304840 167.430725,43.835232 
	C166.416412,43.423542 165.746140,43.099617 164.595276,42.510521 
	C162.732117,41.566196 161.349518,40.887043 160.021423,39.853710 
	C159.239487,37.022415 159.094971,33.874836 157.451981,32.179287 
	C148.240341,22.673027 137.293884,15.409698 125.110901,10.397204 
	C119.939209,8.269401 113.983833,8.046365 108.384628,6.957649 
	C108.233604,5.911810 108.082581,4.865972 107.956482,3.424834 
	C124.558167,3.516956 141.294189,0.725876 157.922363,5.212461 
	C170.092651,10.749387 179.193054,19.070396 182.549774,32.766632 
	C182.108871,37.732510 181.915009,42.191216 182.043091,46.640656 
	C182.133789,49.791042 180.946075,51.289238 177.761475,51.068527 
z"/>
<path fill="#298F71" opacity="1.000000" stroke="none" 
	d="
M177.930603,51.380329 
	C180.946075,51.289238 182.133789,49.791042 182.043091,46.640656 
	C181.915009,42.191216 182.108871,37.732510 182.491089,33.136444 
	C182.874756,33.438400 182.932449,33.881672 183.024445,34.659691 
	C183.223145,43.772549 183.387512,52.550655 183.314606,61.670288 
	C181.418152,58.571918 179.758942,55.132023 177.930603,51.380329 
z"/>
<path fill="#84EBBE" opacity="1.000000" stroke="none" 
	d="
M40.003304,38.001236 
	C39.010590,32.664227 41.727055,30.104027 45.986923,26.976036 
	C53.130634,21.730463 60.896275,18.268799 69.068878,15.566534 
	C78.939224,12.302909 89.152992,11.426435 99.530197,12.804067 
	C101.992050,13.130893 104.519608,12.962830 107.590820,12.986195 
	C108.164711,12.949981 108.408951,12.864997 108.308311,13.269132 
	C108.281662,14.766356 108.355644,15.859447 108.312286,17.290169 
	C108.084129,18.090691 107.973312,18.553583 107.402466,19.014381 
	C97.037262,19.351936 86.950310,18.641460 77.276199,20.316011 
	C66.856865,22.119558 56.285931,24.787270 48.522499,33.401730 
	C46.487335,35.659985 42.885597,36.506428 40.003304,38.001236 
z"/>
<path fill="#8EEDC5" opacity="1.000000" stroke="none" 
	d="
M39.864861,38.281609 
	C42.885597,36.506428 46.487335,35.659985 48.522499,33.401730 
	C56.285931,24.787270 66.856865,22.119558 77.276199,20.316011 
	C86.950310,18.641460 97.037262,19.351936 107.474472,19.382542 
	C108.081642,20.498920 108.156769,21.245047 107.939178,22.215696 
	C107.414017,23.628796 107.181587,24.817375 106.550880,25.926193 
	C99.109612,25.562305 92.040916,24.759815 85.029243,25.107519 
	C72.431046,25.732254 61.247810,30.519442 51.246216,38.197296 
	C47.233490,41.277714 42.996368,44.065815 38.813431,46.560814 
	C38.791210,44.162121 38.816940,42.189583 38.842667,40.217041 
	C39.137249,39.665356 39.431831,39.113670 39.864861,38.281609 
z"/>
<path fill="#349D7E" opacity="1.000000" stroke="none" 
	d="
M108.294174,7.385343 
	C113.983833,8.046365 119.939209,8.269401 125.110901,10.397204 
	C137.293884,15.409698 148.240341,22.673027 157.451981,32.179287 
	C159.094971,33.874836 159.239487,37.022415 159.639557,39.860191 
	C158.446625,40.302990 157.690079,40.385120 156.572296,40.381577 
	C155.475586,40.192772 154.740097,40.089645 154.002884,39.591415 
	C153.058716,37.022274 152.703415,34.116550 151.068909,32.804970 
	C145.037018,27.964760 138.966980,22.923016 132.181381,19.338877 
	C124.914558,15.500545 117.520546,10.571756 108.408951,12.864997 
	C108.408951,12.864997 108.164711,12.949981 108.042526,12.993286 
	C108.014809,11.295406 108.109268,9.554221 108.294174,7.385343 
z"/>
<path fill="#39AE8B" opacity="1.000000" stroke="none" 
	d="
M38.631943,40.156540 
	C38.816940,42.189583 38.791210,44.162121 38.676132,46.793549 
	C38.494217,47.607265 38.401642,47.762096 37.992462,47.946262 
	C36.487572,48.483772 34.886463,48.661823 34.175110,49.551384 
	C27.346704,58.090443 22.376759,67.523865 20.556459,78.628021 
	C19.111700,78.815094 18.055994,78.920494 16.661644,78.956131 
	C15.876524,78.774574 15.430052,78.662766 14.983580,78.550964 
	C14.900364,69.758446 19.222757,62.375988 22.875713,54.862957 
	C24.806992,50.890900 27.401899,47.114155 30.322653,43.800529 
	C31.953079,41.950794 34.864456,41.230137 37.595665,40.001858 
	C37.992725,40.003029 38.421219,40.096039 38.631943,40.156540 
z"/>
<path fill="#81EABE" opacity="1.000000" stroke="none" 
	d="
M14.589943,78.643501 
	C15.430052,78.662766 15.876524,78.774574 16.586250,79.352753 
	C11.105691,103.145203 18.438738,123.346947 31.631556,142.204941 
	C32.790024,143.860886 33.235214,146.015808 33.592064,148.001038 
	C31.767105,148.203476 30.361790,148.343842 28.956474,148.484207 
	C28.212656,148.335098 27.468838,148.185989 26.350739,147.966766 
	C25.976458,147.896667 26.000341,147.444183 25.998745,147.217514 
	C23.478985,141.704407 20.929348,136.432693 18.448841,131.128647 
	C12.179649,117.723274 8.925052,103.753502 10.513719,88.858330 
	C10.828456,85.907372 10.841154,82.924202 10.986851,79.503937 
	C12.052476,78.946671 13.124391,78.841354 14.589943,78.643501 
z"/>
<path fill="#82EBBE" opacity="1.000000" stroke="none" 
	d="
M154.004608,39.986519 
	C154.740097,40.089645 155.475586,40.192772 156.649567,40.603043 
	C157.392639,41.272491 157.697235,41.634800 158.001831,41.997108 
	C160.195038,46.054031 162.450470,50.078739 164.570312,54.173645 
	C172.426392,69.349327 176.486465,85.273712 174.089966,102.490395 
	C173.795364,104.606995 174.012268,106.794807 173.987854,109.393280 
	C173.243927,109.919807 172.504257,110.002670 171.020279,110.110092 
	C169.516006,110.069870 168.756042,110.005081 168.075745,109.543991 
	C168.516327,101.749779 169.700531,94.272987 169.001526,86.976624 
	C168.332184,79.989830 165.714813,73.188347 163.938782,66.309250 
	C161.808090,58.056496 157.220062,51.247730 151.587143,45.003242 
	C150.432648,43.723415 149.829834,41.945927 149.385773,40.316864 
	C151.200745,40.152771 152.602676,40.069645 154.004608,39.986519 
z"/>
<path fill="#39AD8A" opacity="1.000000" stroke="none" 
	d="
M167.996094,109.940292 
	C168.756042,110.005081 169.516006,110.069870 170.654938,110.181534 
	C170.895370,126.199554 162.436691,138.177582 152.142685,149.202408 
	C151.162994,150.251663 149.238373,150.418640 147.290955,150.663971 
	C146.720062,149.885773 146.610657,149.438797 146.599976,148.568436 
	C146.643539,146.425140 146.588409,144.705231 146.648331,142.663208 
	C146.877518,141.899872 146.991653,141.458664 147.462830,140.996460 
	C149.234451,140.234634 151.109741,139.846466 151.989960,138.696594 
	C158.418564,130.298599 164.463120,121.669952 164.437897,110.272873 
	C165.885086,110.118477 166.940582,110.029381 167.996094,109.940292 
z"/>
<path fill="#84EBBE" opacity="1.000000" stroke="none" 
	d="
M146.226776,156.707703 
	C144.393463,157.730927 142.559174,158.176804 141.213135,159.240524 
	C132.178040,166.380463 121.823303,170.931412 110.721893,173.072678 
	C102.510162,174.656570 93.947586,174.538483 85.529198,174.837936 
	C83.792938,174.899689 82.003044,173.453629 80.584320,172.352432 
	C89.041351,171.663376 97.286545,172.128723 105.231316,170.799011 
	C117.482765,168.748489 129.581543,165.700684 139.071899,156.585388 
	C141.131470,154.607224 144.031357,153.503906 146.544220,151.997650 
	C146.513367,153.470505 146.482513,154.943344 146.226776,156.707703 
z"/>
<path fill="#87ECC0" opacity="1.000000" stroke="none" 
	d="
M146.665344,151.753220 
	C144.031357,153.503906 141.131470,154.607224 139.071899,156.585388 
	C129.581543,165.700684 117.482765,168.748489 105.231316,170.799011 
	C97.286545,172.128723 89.041351,171.663376 80.461212,172.004517 
	C79.322899,171.999588 78.654121,171.992477 77.583923,171.609558 
	C77.230980,170.484024 77.279465,169.734253 77.736526,168.987396 
	C87.501961,168.664246 96.925949,168.923630 106.198257,167.860291 
	C117.172310,166.601807 127.563362,163.310318 136.128052,155.563385 
	C139.119598,152.857468 143.017334,151.153412 146.501251,148.991837 
	C146.610657,149.438797 146.720062,149.885773 146.911560,150.668396 
	C146.924576,151.172318 146.855530,151.340561 146.665344,151.753220 
z"/>
<path fill="#73DCB7" opacity="1.000000" stroke="none" 
	d="
M158.406128,42.002304 
	C157.697235,41.634800 157.392639,41.272491 157.010773,40.688721 
	C157.690079,40.385120 158.446625,40.302990 159.585052,40.214378 
	C161.349518,40.887043 162.732117,41.566196 164.308685,42.522964 
	C162.605240,42.536217 160.707825,42.271862 158.406128,42.002304 
z"/>
<path fill="#39AE8B" opacity="1.000000" stroke="none" 
	d="
M77.327957,168.984497 
	C77.279465,169.734253 77.230980,170.484024 77.249397,171.605591 
	C77.238838,172.148575 77.161385,172.319778 76.584602,172.747528 
	C74.935867,172.864380 73.714951,172.928314 72.648026,172.553711 
	C60.995300,168.462234 49.726467,163.559143 40.472797,155.133057 
	C38.730797,153.546844 38.116989,150.721619 37.375824,148.360596 
	C38.849453,148.139725 39.929836,148.026382 41.432846,147.977875 
	C43.264416,148.208008 44.673359,148.373291 46.080208,148.861389 
	C46.552319,154.217865 51.202999,154.831284 54.397659,156.868423 
	C61.257450,161.242676 68.235191,165.464325 76.974365,165.020676 
	C77.085793,164.977020 77.312729,164.900925 77.235138,165.305328 
	C77.214340,166.801315 77.271149,167.892899 77.327957,168.984497 
z"/>
<path fill="#37A483" opacity="1.000000" stroke="none" 
	d="
M36.982582,148.468140 
	C38.116989,150.721619 38.730797,153.546844 40.472797,155.133057 
	C49.726467,163.559143 60.995300,168.462234 72.648026,172.553711 
	C73.714951,172.928314 74.935867,172.864380 76.480942,173.009628 
	C76.923531,174.403412 76.970444,175.791626 76.963501,177.594116 
	C66.880920,177.258392 57.871788,173.506989 49.666584,168.005478 
	C43.204845,163.672928 37.108253,158.773727 31.056746,153.870407 
	C29.876177,152.913818 29.648546,150.781143 28.968925,148.837570 
	C30.361790,148.343842 31.767105,148.203476 33.963737,148.067749 
	C35.497566,148.204300 36.240074,148.336212 36.982582,148.468140 
z"/>
<path fill="#36A584" opacity="1.000000" stroke="none" 
	d="
M154.002884,39.591415 
	C152.602676,40.069645 151.200745,40.152771 149.145996,40.208870 
	C148.330444,40.117302 148.167694,40.052761 148.003098,39.591263 
	C147.046814,37.274712 146.488602,34.974495 145.071533,33.499310 
	C137.684601,25.809464 128.177475,21.540899 118.351494,18.079306 
	C115.291641,17.001352 111.750458,17.289679 108.429626,16.952538 
	C108.355644,15.859447 108.281662,14.766356 108.308311,13.269132 
	C117.520546,10.571756 124.914558,15.500545 132.181381,19.338877 
	C138.966980,22.923016 145.037018,27.964760 151.068909,32.804970 
	C152.703415,34.116550 153.058716,37.022274 154.002884,39.591415 
z"/>
<path fill="#39AD8A" opacity="1.000000" stroke="none" 
	d="
M108.312286,17.290169 
	C111.750458,17.289679 115.291641,17.001352 118.351494,18.079306 
	C128.177475,21.540899 137.684601,25.809464 145.071533,33.499310 
	C146.488602,34.974495 147.046814,37.274712 147.573273,39.643555 
	C145.421448,40.174114 143.697586,40.255432 141.740219,40.185921 
	C141.345108,39.945549 141.183517,39.856003 140.997345,39.421181 
	C140.063141,37.565395 139.511383,35.507126 138.182236,34.638683 
	C132.255386,30.766167 126.306229,26.819719 119.953415,23.752813 
	C116.775169,22.218475 112.713821,22.513397 108.846779,21.974159 
	C108.641663,21.967352 108.231903,21.991175 108.231903,21.991175 
	C108.156769,21.245047 108.081642,20.498920 107.934509,19.384632 
	C107.973312,18.553583 108.084129,18.090691 108.312286,17.290169 
z"/>
<path fill="#97EFCA" opacity="1.000000" stroke="none" 
	d="
M38.309067,47.916924 
	C38.401642,47.762096 38.494217,47.607265 38.724087,47.219704 
	C42.996368,44.065815 47.233490,41.277714 51.246216,38.197296 
	C61.247810,30.519442 72.431046,25.732254 85.029243,25.107519 
	C92.040916,24.759815 99.109612,25.562305 106.590729,26.324867 
	C107.007767,27.870173 106.986694,28.937040 106.524841,30.002857 
	C102.627121,29.669405 99.176857,29.210770 95.712013,29.027355 
	C83.407043,28.375994 72.126732,32.351063 61.323353,37.519173 
	C56.840607,39.663628 53.126011,43.412895 49.059784,46.429249 
	C45.666290,48.946556 42.269424,51.459309 38.830544,53.541420 
	C38.627712,51.378147 38.468391,49.647533 38.309067,47.916924 
z"/>
<path fill="#47C59E" opacity="1.000000" stroke="none" 
	d="
M106.965614,30.003910 
	C106.986694,28.937040 107.007767,27.870173 106.988998,26.404629 
	C107.181587,24.817375 107.414017,23.628796 107.939178,22.215696 
	C108.231903,21.991175 108.641663,21.967352 108.833298,22.390558 
	C109.039101,24.198862 109.053276,25.583961 109.058525,27.357983 
	C110.439857,29.027863 111.640518,30.670000 113.257599,31.518909 
	C117.347336,33.665874 122.624626,34.133614 123.626999,39.847679 
	C122.139137,40.084553 121.053963,40.238678 119.562317,40.306290 
	C117.771454,40.155552 116.387070,40.091335 114.685608,39.790302 
	C112.197662,39.410225 110.026787,39.266960 107.682602,39.066322 
	C107.509277,39.008953 107.160995,38.899315 107.268494,38.581226 
	C107.332367,36.814598 107.288734,35.366062 107.218849,33.526005 
	C107.116928,32.090961 107.041275,31.047436 106.965614,30.003910 
z"/>
<path fill="#8BEDC4" opacity="1.000000" stroke="none" 
	d="
M37.375824,148.360596 
	C36.240074,148.336212 35.497566,148.204300 34.383377,148.005676 
	C33.235214,146.015808 32.790024,143.860886 31.631556,142.204941 
	C18.438738,123.346947 11.105691,103.145203 16.924898,79.422516 
	C18.055994,78.920494 19.111700,78.815094 20.930355,78.734329 
	C22.462463,78.846199 23.231621,78.933434 23.928677,79.374466 
	C21.042139,82.989769 21.592041,86.833229 21.303297,90.803604 
	C19.890474,110.230446 26.452997,126.782898 38.171005,141.784546 
	C39.520657,143.512390 40.082905,145.855301 41.010223,147.913040 
	C39.929836,148.026382 38.849453,148.139725 37.375824,148.360596 
z"/>
<path fill="#3DBA94" opacity="1.000000" stroke="none" 
	d="
M24.000778,79.020660 
	C23.231621,78.933434 22.462463,78.846199 21.319410,78.652657 
	C22.376759,67.523865 27.346704,58.090443 34.175110,49.551384 
	C34.886463,48.661823 36.487572,48.483772 37.992462,47.946262 
	C38.468391,49.647533 38.627712,51.378147 38.664238,53.902809 
	C38.615978,57.172241 38.690514,59.647625 38.594734,62.115314 
	C38.424423,62.107624 38.087265,62.056805 37.711571,62.055229 
	C35.765160,63.297722 33.339565,64.247826 32.790936,65.843338 
	C31.387283,69.925400 30.819113,74.294762 29.687380,78.666901 
	C29.305658,78.864273 29.153360,78.943977 28.628019,78.969574 
	C27.503857,78.952263 26.752737,78.989067 25.669134,78.984344 
	C24.891361,78.968765 24.446070,78.994713 24.000778,79.020660 
z"/>
<path fill="#8CEDC4" opacity="1.000000" stroke="none" 
	d="
M141.973740,40.336746 
	C143.697586,40.255432 145.421448,40.174114 147.575134,40.040508 
	C148.167694,40.052761 148.330444,40.117302 148.732941,40.289833 
	C149.829834,41.945927 150.432648,43.723415 151.587143,45.003242 
	C157.220062,51.247730 161.808090,58.056496 163.938782,66.309250 
	C165.714813,73.188347 168.332184,79.989830 169.001526,86.976624 
	C169.700531,94.272987 168.516327,101.749779 168.075745,109.543991 
	C166.940582,110.029381 165.885086,110.118477 164.095703,110.177017 
	C162.901901,110.037941 162.441971,109.929405 161.991592,109.427925 
	C164.302673,101.923874 163.971878,94.769211 163.102020,87.416336 
	C161.320831,72.360062 156.765213,58.695621 146.087906,47.453445 
	C144.252975,45.521454 143.322174,42.730770 141.973740,40.336746 
z"/>
<path fill="#8CEDC4" opacity="1.000000" stroke="none" 
	d="
M77.736526,168.987396 
	C77.271149,167.892899 77.214340,166.801315 77.646423,165.332428 
	C78.964592,164.985748 79.802765,164.948914 80.621880,165.056793 
	C105.102737,168.281067 126.505775,162.312775 143.841629,144.021545 
	C144.438644,143.391632 145.622787,143.318176 146.533264,142.985336 
	C146.588409,144.705231 146.643539,146.425140 146.599976,148.568436 
	C143.017334,151.153412 139.119598,152.857468 136.128052,155.563385 
	C127.563362,163.310318 117.172310,166.601807 106.198257,167.860291 
	C96.925949,168.923630 87.501961,168.664246 77.736526,168.987396 
z"/>
<path fill="#93EFC8" opacity="1.000000" stroke="none" 
	d="
M146.648315,142.663208 
	C145.622787,143.318176 144.438644,143.391632 143.841629,144.021545 
	C126.505775,162.312775 105.102737,168.281067 80.621880,165.056793 
	C79.802765,164.948914 78.964592,164.985748 77.724014,164.928024 
	C77.312729,164.900925 77.085793,164.977020 77.041710,164.616898 
	C77.032448,163.169464 77.067276,162.082153 77.530624,160.996429 
	C79.442421,161.109894 80.937737,161.137299 82.407196,161.346359 
	C105.727814,164.664032 125.842117,158.487595 142.330963,141.311859 
	C143.384491,140.214447 145.103561,139.755981 146.619629,139.334045 
	C146.852753,140.117691 146.979263,140.567566 147.105789,141.017456 
	C146.991653,141.458664 146.877518,141.899872 146.648315,142.663208 
z"/>
<path fill="#3DB993" opacity="1.000000" stroke="none" 
	d="
M147.462830,140.996460 
	C146.979263,140.567566 146.852753,140.117691 146.733032,138.911591 
	C146.675522,136.431976 146.611221,134.708572 146.656754,132.598053 
	C146.879883,131.146835 146.993179,130.082764 147.467026,128.996719 
	C149.117203,128.061432 150.923065,127.430908 151.605621,126.184998 
	C154.313766,121.241531 156.961792,116.184570 156.281067,110.080986 
	C156.671829,109.874550 156.823868,109.784050 157.387115,109.774368 
	C159.192902,109.843742 160.587463,109.832306 161.982025,109.820869 
	C162.441971,109.929405 162.901901,110.037941 163.704041,110.242325 
	C164.463120,121.669952 158.418564,130.298599 151.989960,138.696594 
	C151.109741,139.846466 149.234451,140.234634 147.462830,140.996460 
z"/>
<path fill="#93EFC8" opacity="1.000000" stroke="none" 
	d="
M23.928677,79.374466 
	C24.446070,78.994713 24.891361,78.968765 25.662413,79.408859 
	C24.388569,90.765335 23.758522,101.752914 27.192362,112.310074 
	C30.526121,122.559540 32.975510,133.436844 42.615505,140.498428 
	C44.506573,141.883667 44.875988,145.346176 45.985825,148.021667 
	C46.024452,148.192703 46.082302,148.538589 46.082302,148.538589 
	C44.673359,148.373291 43.264416,148.208008 41.432846,147.977875 
	C40.082905,145.855301 39.520657,143.512390 38.171005,141.784546 
	C26.452997,126.782898 19.890474,110.230446 21.303297,90.803604 
	C21.592041,86.833229 21.042139,82.989769 23.928677,79.374466 
z"/>
<path fill="#3DBA94" opacity="1.000000" stroke="none" 
	d="
M77.102104,160.994843 
	C77.067276,162.082153 77.032448,163.169464 76.930283,164.660553 
	C68.235191,165.464325 61.257450,161.242676 54.397659,156.868423 
	C51.202999,154.831284 46.552319,154.217865 46.080208,148.861389 
	C46.082302,148.538589 46.024452,148.192703 46.371399,148.090805 
	C47.496880,147.947647 48.275414,147.906387 49.443390,147.928864 
	C50.884377,148.024902 51.935925,148.057205 53.313889,148.294312 
	C55.758286,148.670547 57.876263,148.841934 60.062283,149.355484 
	C64.086693,155.926636 70.343803,156.149124 76.784378,156.376160 
	C76.924950,157.129974 77.003990,157.560898 77.035904,158.365936 
	C77.026550,159.491669 77.064331,160.243256 77.102104,160.994843 
z"/>
<path fill="#95EFC9" opacity="1.000000" stroke="none" 
	d="
M161.991592,109.427925 
	C160.587463,109.832306 159.192902,109.843742 157.399048,109.391045 
	C159.062881,100.957687 159.913528,92.932480 157.984283,84.807144 
	C155.392044,73.889481 154.100433,62.596901 145.047974,54.168919 
	C140.952423,50.355885 138.292465,45.000851 135.404968,40.254494 
	C137.559799,40.031235 139.290848,39.898846 141.021912,39.766457 
	C141.183517,39.856003 141.345108,39.945549 141.740219,40.185921 
	C143.322174,42.730770 144.252975,45.521454 146.087906,47.453445 
	C156.765213,58.695621 161.320831,72.360062 163.102020,87.416336 
	C163.971878,94.769211 164.302673,101.923874 161.991592,109.427925 
z"/>
<path fill="#3BB590" opacity="1.000000" stroke="none" 
	d="
M140.997345,39.421181 
	C139.290848,39.898846 137.559799,40.031235 135.081909,40.141228 
	C133.895996,39.998802 133.456894,39.878769 133.011292,39.392727 
	C132.002029,37.243141 131.430099,34.802761 129.911026,33.806324 
	C126.215286,31.382095 122.224541,29.219671 118.070465,27.748446 
	C115.322174,26.775099 112.085480,27.180769 109.067444,26.969059 
	C109.053276,25.583961 109.039101,24.198862 109.038414,22.397366 
	C112.713821,22.513397 116.775169,22.218475 119.953415,23.752813 
	C126.306229,26.819719 132.255386,30.766167 138.182236,34.638683 
	C139.511383,35.507126 140.063141,37.565395 140.997345,39.421181 
z"/>
<path fill="#9DF1CF" opacity="1.000000" stroke="none" 
	d="
M38.765045,62.123009 
	C38.690514,59.647625 38.615978,57.172241 38.707748,54.335472 
	C42.269424,51.459309 45.666290,48.946556 49.059784,46.429249 
	C53.126011,43.412895 56.840607,39.663628 61.323353,37.519173 
	C72.126732,32.351063 83.407043,28.375994 95.712013,29.027355 
	C99.176857,29.210770 102.627121,29.669405 106.524841,30.002857 
	C107.041275,31.047436 107.116928,32.090961 106.803261,33.564713 
	C104.128952,34.049541 101.767151,34.509560 99.571358,34.093494 
	C84.400879,31.218962 70.949966,35.494228 58.845905,44.257336 
	C54.005306,47.761841 50.143574,52.598637 45.703728,56.684971 
	C43.548321,58.668758 41.087566,60.320786 38.765045,62.123009 
z"/>
<path fill="#A6F3D3" opacity="1.000000" stroke="none" 
	d="
M38.594734,62.115318 
	C41.087566,60.320786 43.548321,58.668758 45.703728,56.684971 
	C50.143574,52.598637 54.005306,47.761841 58.845905,44.257336 
	C70.949966,35.494228 84.400879,31.218962 99.571358,34.093494 
	C101.767151,34.509560 104.128952,34.049541 106.829521,33.956230 
	C107.288734,35.366062 107.332367,36.814598 106.927109,38.605122 
	C105.648384,39.260609 104.818550,39.574108 103.544998,39.917633 
	C100.723381,39.923538 98.345467,39.899414 95.663589,39.668350 
	C91.907326,39.977940 88.455040,40.494476 84.713539,40.790504 
	C79.482483,41.446350 73.851944,41.107616 69.735733,43.440651 
	C59.792229,49.076553 49.644028,54.982212 44.943081,66.491623 
	C44.452988,67.691536 43.725773,69.085625 42.697235,69.692558 
	C41.673763,70.296501 40.131733,70.021683 38.677414,69.702072 
	C38.387585,66.866905 38.237427,64.461853 38.087265,62.056805 
	C38.087265,62.056805 38.424423,62.107624 38.594734,62.115318 
z"/>
<path fill="#AAF4D5" opacity="1.000000" stroke="none" 
	d="
M115.002686,40.027115 
	C116.387070,40.091335 117.771454,40.155552 119.593384,40.633186 
	C121.397034,42.608799 122.617371,44.335518 124.158195,45.700470 
	C127.878464,48.996117 132.060303,51.820564 135.501831,55.372044 
	C147.691940,67.951645 149.860367,84.085938 150.545746,100.521286 
	C150.633545,102.626419 148.224915,104.835655 146.937653,106.536362 
	C146.841156,102.106766 146.779755,98.137474 146.741745,93.858147 
	C146.461487,93.036171 146.157837,92.524223 145.844543,91.654091 
	C145.823212,90.340599 145.811523,89.385300 145.794739,88.084869 
	C145.202271,87.151596 144.614914,86.563438 144.022034,85.556229 
	C141.354202,77.937218 139.958755,69.856689 135.717148,63.754524 
	C130.093628,55.664276 122.095757,49.347408 112.863052,45.007851 
	C111.566208,44.398308 110.938911,42.364262 110.379532,40.966427 
	C112.172470,40.637882 113.587578,40.332497 115.002686,40.027115 
z"/>
<path fill="#A2F2D1" opacity="1.000000" stroke="none" 
	d="
M146.972748,106.996666 
	C148.224915,104.835655 150.633545,102.626419 150.545746,100.521286 
	C149.860367,84.085938 147.691940,67.951645 135.501831,55.372044 
	C132.060303,51.820564 127.878464,48.996117 124.158195,45.700470 
	C122.617371,44.335518 121.397034,42.608799 119.999863,40.719707 
	C121.053963,40.238678 122.139137,40.084553 124.018303,39.928478 
	C125.866051,40.062813 126.919800,40.199097 127.984207,40.686459 
	C128.948868,42.660065 129.504456,44.982483 130.922562,45.789761 
	C139.165436,50.482162 143.687866,58.430859 147.838745,66.159218 
	C155.091171,79.662224 157.310913,94.232048 152.534790,109.343765 
	C150.488205,109.292419 148.850830,109.239700 147.115448,108.829887 
	C147.002533,107.980751 146.987640,107.488708 146.972748,106.996666 
z"/>
<path fill="#3EBD96" opacity="1.000000" stroke="none" 
	d="
M127.973549,40.335381 
	C126.919800,40.199097 125.866051,40.062813 124.420998,39.845734 
	C122.624626,34.133614 117.347336,33.665874 113.257599,31.518909 
	C111.640518,30.670000 110.439857,29.027863 109.058517,27.357983 
	C112.085480,27.180769 115.322174,26.775099 118.070465,27.748446 
	C122.224541,29.219671 126.215286,31.382095 129.911026,33.806324 
	C131.430099,34.802761 132.002029,37.243141 132.595749,39.479973 
	C130.782333,40.067276 129.377945,40.201328 127.973549,40.335381 
z"/>
<path fill="#73DCB7" opacity="1.000000" stroke="none" 
	d="
M114.685608,39.790302 
	C113.587578,40.332497 112.172470,40.637882 110.064133,40.943356 
	C108.949860,40.928036 108.528816,40.912624 108.048981,40.707611 
	C107.990204,40.518009 107.830070,40.154728 107.853043,39.897385 
	C107.869316,39.467918 107.862617,39.295803 107.855919,39.123692 
	C110.026787,39.266960 112.197662,39.410225 114.685608,39.790302 
z"/>
<path fill="#C2F8E2" opacity="1.000000" stroke="none" 
	d="
M107.682602,39.066322 
	C107.862617,39.295803 107.869316,39.467918 107.569229,40.001724 
	C106.171204,40.204811 105.079956,40.046211 103.988708,39.887611 
	C104.818550,39.574108 105.648384,39.260609 106.819611,38.923210 
	C107.160995,38.899315 107.509277,39.008953 107.682602,39.066322 
z"/>
<path fill="#9CF1CE" opacity="1.000000" stroke="none" 
	d="
M52.987465,148.089508 
	C51.935925,148.057205 50.884377,148.024902 49.569649,147.640808 
	C48.466599,145.289780 47.993141,143.007797 46.712742,141.348480 
	C43.793663,137.565521 39.790146,134.484619 37.446621,130.416077 
	C28.236073,114.425903 25.203094,97.240944 29.001060,79.023689 
	C29.153360,78.943977 29.305658,78.864273 30.027740,78.794067 
	C31.068134,78.907364 31.538744,79.011177 32.003525,79.494125 
	C31.485365,81.787521 30.646227,83.679184 30.511990,85.619614 
	C29.356371,102.324226 31.766613,118.075073 42.902760,131.511795 
	C47.084675,136.557648 50.973145,141.846710 54.708046,147.083313 
	C53.942944,147.457642 53.465206,147.773575 52.987465,148.089508 
z"/>
<path fill="#97EFCA" opacity="1.000000" stroke="none" 
	d="
M28.628019,78.969574 
	C25.203094,97.240944 28.236073,114.425903 37.446621,130.416077 
	C39.790146,134.484619 43.793663,137.565521 46.712742,141.348480 
	C47.993141,143.007797 48.466599,145.289780 49.180202,147.577087 
	C48.275414,147.906387 47.496880,147.947647 46.332775,147.919769 
	C44.875988,145.346176 44.506573,141.883667 42.615505,140.498428 
	C32.975510,133.436844 30.526121,122.559540 27.192362,112.310074 
	C23.758522,101.752914 24.388569,90.765335 25.994894,79.450386 
	C26.752737,78.989067 27.503857,78.952263 28.628019,78.969574 
z"/>
<path fill="#4AC79E" opacity="1.000000" stroke="none" 
	d="
M32.009354,79.114990 
	C31.538744,79.011177 31.068134,78.907364 30.257164,78.676384 
	C30.819113,74.294762 31.387283,69.925400 32.790936,65.843338 
	C33.339565,64.247826 35.765160,63.297722 37.711571,62.055229 
	C38.237427,64.461853 38.387585,66.866905 38.507782,70.115692 
	C38.346767,73.664108 38.215710,76.368805 38.081161,79.059402 
	C38.077667,79.045311 38.049000,79.049667 37.618919,78.999474 
	C35.462345,79.004517 33.735847,79.059753 32.009354,79.114990 
z"/>
<path fill="#97EFCA" opacity="1.000000" stroke="none" 
	d="
M77.530624,160.996429 
	C77.064331,160.243256 77.026550,159.491669 77.467331,158.368301 
	C88.520195,159.038422 99.089119,160.306900 109.541794,157.007660 
	C121.706306,153.168091 133.289490,148.563721 140.714081,137.156845 
	C141.928406,135.291183 144.566742,134.352356 146.546921,132.985168 
	C146.611221,134.708572 146.675522,136.431976 146.626434,138.577835 
	C145.103561,139.755981 143.384491,140.214447 142.330963,141.311859 
	C125.842117,158.487595 105.727814,164.664032 82.407196,161.346359 
	C80.937737,161.137299 79.442421,161.109894 77.530624,160.996429 
z"/>
<path fill="#9CF1CE" opacity="1.000000" stroke="none" 
	d="
M127.984207,40.686459 
	C129.377945,40.201328 130.782333,40.067276 132.602264,39.845982 
	C133.456894,39.878769 133.895996,39.998802 134.658142,40.232101 
	C138.292465,45.000851 140.952423,50.355885 145.047974,54.168919 
	C154.100433,62.596901 155.392044,73.889481 157.984283,84.807144 
	C159.913528,92.932480 159.062881,100.957687 156.987823,109.310234 
	C156.823868,109.784050 156.671829,109.874550 155.964386,109.996643 
	C154.587326,109.799622 153.765656,109.571014 152.944000,109.342400 
	C157.310913,94.232048 155.091171,79.662224 147.838745,66.159218 
	C143.687866,58.430859 139.165436,50.482162 130.922562,45.789761 
	C129.504456,44.982483 128.948868,42.660065 127.984207,40.686459 
z"/>
<path fill="#9DF1CF" opacity="1.000000" stroke="none" 
	d="
M146.656754,132.598053 
	C144.566742,134.352356 141.928406,135.291183 140.714081,137.156845 
	C133.289490,148.563721 121.706306,153.168091 109.541794,157.007660 
	C99.089119,160.306900 88.520195,159.038422 77.514465,157.994171 
	C77.003990,157.560898 76.924950,157.129974 76.891632,156.112823 
	C76.999886,155.347885 77.062401,155.169205 77.521255,154.992035 
	C80.705437,155.015900 83.500938,155.181961 86.279678,155.033737 
	C94.807205,154.578934 104.036324,155.896729 111.687408,153.035278 
	C123.414421,148.649460 135.058289,142.713440 141.511795,130.521927 
	C142.223145,129.178085 144.773087,128.807510 146.623779,128.247253 
	C146.886993,128.678879 146.996735,128.848770 147.106491,129.018677 
	C146.993179,130.082764 146.879883,131.146835 146.656754,132.598053 
z"/>
<path fill="#47C59E" opacity="1.000000" stroke="none" 
	d="
M147.467026,128.996719 
	C146.996735,128.848770 146.886993,128.678879 146.742157,127.811752 
	C146.644913,124.739632 146.582764,122.364731 146.632385,119.542526 
	C146.750565,115.997398 146.756958,112.899567 146.886749,109.656006 
	C147.010147,109.510269 147.213455,109.186981 147.213455,109.186981 
	C148.850830,109.239700 150.488205,109.292419 152.534790,109.343765 
	C153.765656,109.571014 154.587326,109.799622 155.725647,110.112579 
	C156.961792,116.184570 154.313766,121.241531 151.605621,126.184998 
	C150.923065,127.430908 149.117203,128.061432 147.467026,128.996719 
z"/>
<path fill="#4AC79E" opacity="1.000000" stroke="none" 
	d="
M77.124916,154.990509 
	C77.062401,155.169205 76.999886,155.347885 76.830109,155.789917 
	C70.343803,156.149124 64.086693,155.926636 60.457634,149.328918 
	C62.535282,148.685623 64.285622,148.411072 66.470604,148.122681 
	C68.939819,148.038589 70.974396,147.968323 73.398422,147.966980 
	C74.577698,148.069595 75.367531,148.103302 76.300064,148.160858 
	C76.442772,148.184692 76.730629,148.155197 76.796036,148.112457 
	C76.861450,148.069733 76.999825,147.997131 76.966736,148.327423 
	C77.086540,149.071747 77.239433,149.485809 77.294769,150.316040 
	C77.173111,152.151657 77.149017,153.571075 77.124916,154.990509 
z"/>
<path fill="#78E6B8" opacity="1.000000" stroke="none" 
	d="
M66.035957,148.136505 
	C64.285622,148.411072 62.535282,148.685623 60.389595,148.986755 
	C57.876263,148.841934 55.758286,148.670547 53.313885,148.294327 
	C53.465206,147.773575 53.942944,147.457642 55.152290,147.091705 
	C58.253883,147.043182 60.623871,147.044678 63.328949,147.066864 
	C64.454681,147.437210 65.245316,147.786865 66.035957,148.136505 
z"/>
<path fill="#FDFFFE" opacity="1.000000" stroke="none" 
	d="
M147.115448,108.829887 
	C147.213455,109.186981 147.010147,109.510269 146.511856,109.664398 
	C145.018829,109.937958 144.024094,110.057388 142.593765,110.116837 
	C140.116150,110.080307 138.074142,110.103775 135.581512,110.079994 
	C132.427475,110.056831 129.724045,110.080925 126.592346,110.069611 
	C124.448723,110.038719 122.733368,110.043228 120.552155,110.027634 
	C106.000099,110.232071 108.255997,107.857323 108.029335,122.050293 
	C108.018776,122.711349 108.093864,123.373772 108.110138,124.460747 
	C108.075653,126.589066 108.060081,128.292191 107.821503,130.244843 
	C107.467758,131.358078 107.337021,132.221756 107.171921,133.466644 
	C106.422638,136.229675 105.707710,138.611481 104.719856,141.146484 
	C103.649269,142.246765 102.851608,143.193832 101.847488,144.245361 
	C101.380699,144.525238 101.169006,144.747055 100.633972,145.073929 
	C92.861061,148.954956 84.847237,147.800385 76.999825,147.997131 
	C76.999825,147.997131 76.861450,148.069733 76.819565,147.835541 
	C76.522308,147.345123 76.266937,147.088867 76.037552,146.417175 
	C76.033325,144.335602 76.003105,142.669479 76.003555,140.605438 
	C76.318207,138.146988 76.602180,136.086441 76.927299,133.581604 
	C76.959816,130.765289 76.951195,128.393295 76.968056,125.552521 
	C76.988899,121.434921 76.891945,117.783134 77.008667,114.138206 
	C77.103188,111.186859 75.913071,109.897537 72.910973,109.990402 
	C68.602875,110.123665 64.288399,110.050407 59.604034,110.051506 
	C58.485779,110.031494 57.740135,110.025299 56.829128,109.845497 
	C56.107128,109.770523 55.550495,109.869156 54.662014,109.961693 
	C53.887924,109.967758 53.445675,109.979919 52.646431,109.948776 
	C49.523079,108.287949 46.756721,106.670425 43.713654,104.866928 
	C41.982121,102.735703 40.527298,100.790443 39.049446,98.432785 
	C38.656406,92.679024 38.286400,87.337662 37.956177,81.629395 
	C38.013641,80.524879 38.031319,79.787277 38.049000,79.049667 
	C38.049000,79.049667 38.077667,79.045311 38.474857,79.034668 
	C41.253963,78.708580 43.635880,78.393143 46.433327,78.096283 
	C48.236897,78.101830 49.624928,78.088806 51.440994,78.087677 
	C53.583557,78.082291 55.298080,78.064995 57.438656,78.059128 
	C59.571198,78.071182 61.277695,78.071808 63.316628,78.287399 
	C75.132057,80.248497 77.099922,78.622810 76.999512,67.469231 
	C76.995041,66.972878 76.966835,66.476730 76.961548,65.553848 
	C76.978409,63.419369 76.983406,61.711525 77.145630,59.654385 
	C78.213821,55.544819 79.124771,51.784554 80.194687,47.753998 
	C81.291023,46.352261 82.228394,45.220806 83.404907,43.968269 
	C84.091049,43.552357 84.538040,43.257526 85.365440,42.916420 
	C89.153076,41.871857 92.560318,40.873573 95.967552,39.875290 
	C98.345467,39.899414 100.723381,39.923538 103.544998,39.917633 
	C105.079956,40.046211 106.171204,40.204811 107.546265,40.259071 
	C107.830070,40.154728 107.990204,40.518009 107.992020,41.133293 
	C108.312851,45.164680 108.631859,48.580784 108.752029,52.243660 
	C108.683510,53.668514 108.813835,54.846592 108.933594,56.438148 
	C108.931892,58.232361 108.940758,59.613091 108.749496,61.240829 
	C108.405251,62.314400 108.261131,63.140968 108.082336,64.434189 
	C107.885948,79.389702 107.885948,79.389702 121.430099,78.866135 
	C123.541573,78.608521 125.268707,78.332024 127.392899,78.067734 
	C128.847504,78.079941 129.905029,78.079948 131.225189,78.315010 
	C133.291443,79.101372 135.095078,79.652687 137.090271,80.462967 
	C138.836685,82.164993 140.391525,83.608047 141.972900,85.382812 
	C142.648560,86.489708 143.297714,87.264900 144.257553,88.096413 
	C144.978775,88.245148 145.389313,88.337570 145.799850,88.430000 
	C145.811523,89.385300 145.823212,90.340599 145.702255,91.850090 
	C145.952515,92.992249 146.335434,93.580215 146.718353,94.168182 
	C146.779755,98.137474 146.841156,102.106766 146.937653,106.536362 
	C146.987640,107.488708 147.002533,107.980751 147.115448,108.829887 
z"/>
<path fill="#AEF5D8" opacity="1.000000" stroke="none" 
	d="
M84.985039,42.962700 
	C84.538040,43.257526 84.091049,43.552357 83.023239,43.958000 
	C77.550797,46.201786 72.280205,47.713184 67.955650,50.628120 
	C62.776966,54.118793 57.695972,58.256004 53.897602,63.143005 
	C50.521194,67.487114 44.995277,71.227386 46.017796,78.077698 
	C43.635880,78.393143 41.253963,78.708580 38.478348,79.048752 
	C38.215710,76.368805 38.346767,73.664108 38.647453,70.545807 
	C40.131733,70.021683 41.673763,70.296501 42.697235,69.692558 
	C43.725773,69.085625 44.452988,67.691536 44.943081,66.491623 
	C49.644028,54.982212 59.792229,49.076553 69.735733,43.440651 
	C73.851944,41.107616 79.482483,41.446350 84.711288,41.115837 
	C84.993851,42.095348 84.989441,42.529022 84.985039,42.962700 
z"/>
<path fill="#C2F8E2" opacity="1.000000" stroke="none" 
	d="
M85.365440,42.916420 
	C84.989441,42.529022 84.993851,42.095348 85.000504,41.336342 
	C88.455040,40.494476 91.907326,39.977940 95.663589,39.668350 
	C92.560318,40.873573 89.153076,41.871857 85.365440,42.916420 
z"/>
<path fill="#B4F6DB" opacity="1.000000" stroke="none" 
	d="
M108.950867,51.996891 
	C108.631859,48.580784 108.312851,45.164680 108.050804,41.322891 
	C108.528816,40.912624 108.949860,40.928036 109.686302,40.966518 
	C110.938911,42.364262 111.566208,44.398308 112.863052,45.007851 
	C122.095757,49.347408 130.093628,55.664276 135.717148,63.754524 
	C139.958755,69.856689 141.354202,77.937218 144.005432,85.569794 
	C143.994385,86.002411 143.961517,86.028137 143.710968,85.903801 
	C142.955734,85.536674 142.451050,85.293892 141.946381,85.051102 
	C140.391525,83.608047 138.836685,82.164993 137.105103,80.067001 
	C133.436935,73.293236 130.906616,66.250481 126.172729,61.325985 
	C121.795761,56.772770 116.813103,51.098240 108.950867,51.996891 
z"/>
<path fill="#D3FDED" opacity="1.000000" stroke="none" 
	d="
M146.741745,93.858154 
	C146.335434,93.580215 145.952515,92.992249 145.711899,92.208282 
	C146.157837,92.524223 146.461487,93.036171 146.741745,93.858154 
z"/>
<path fill="#B4F6DB" opacity="1.000000" stroke="none" 
	d="
M145.794739,88.084869 
	C145.389313,88.337570 144.978775,88.245148 144.271881,87.760712 
	C143.970856,86.921837 143.966187,86.474991 143.961517,86.028137 
	C143.961517,86.028137 143.994385,86.002411 144.010986,85.988846 
	C144.614914,86.563438 145.202271,87.151596 145.794739,88.084869 
z"/>
<path fill="#A2F2D1" opacity="1.000000" stroke="none" 
	d="
M37.618919,78.999474 
	C38.031319,79.787277 38.013641,80.524879 37.599262,81.712143 
	C36.137348,84.011589 34.134277,85.884651 34.179482,87.706909 
	C34.326035,93.614838 35.003384,99.536964 35.876358,105.393997 
	C37.912453,119.054703 44.452705,130.158585 55.186996,138.909332 
	C58.078655,141.266647 60.406952,144.315018 62.993855,147.046173 
	C60.623871,147.044678 58.253883,147.043182 55.439651,147.033295 
	C50.973145,141.846710 47.084675,136.557648 42.902760,131.511795 
	C31.766613,118.075073 29.356371,102.324226 30.511990,85.619614 
	C30.646227,83.679184 31.485365,81.787521 32.003525,79.494110 
	C33.735847,79.059753 35.462345,79.004517 37.618919,78.999474 
z"/>
<path fill="#A3F2D2" opacity="1.000000" stroke="none" 
	d="
M77.521255,154.992035 
	C77.149017,153.571075 77.173111,152.151657 77.616089,150.338043 
	C78.684608,149.983521 79.334251,150.023178 80.138916,150.414307 
	C84.767220,151.445709 89.907776,153.860764 93.576889,152.449692 
	C101.577904,149.372665 110.422821,150.910767 118.166092,146.052032 
	C127.203522,140.381256 136.104294,135.158554 141.107986,125.153687 
	C142.157593,123.055008 144.677963,121.691895 146.520599,119.989822 
	C146.582764,122.364731 146.644913,124.739632 146.588684,127.550034 
	C144.773087,128.807510 142.223145,129.178085 141.511795,130.521927 
	C135.058289,142.713440 123.414421,148.649460 111.687408,153.035278 
	C104.036324,155.896729 94.807205,154.578934 86.279678,155.033737 
	C83.500938,155.181961 80.705437,155.015900 77.521255,154.992035 
z"/>
<path fill="#AAF4D5" opacity="1.000000" stroke="none" 
	d="
M146.632385,119.542526 
	C144.677963,121.691895 142.157593,123.055008 141.107986,125.153687 
	C136.104294,135.158554 127.203522,140.381256 118.166092,146.052032 
	C110.422821,150.910767 101.577904,149.372665 93.576889,152.449692 
	C89.907776,153.860764 84.767220,151.445709 80.603973,150.397552 
	C83.911697,150.017242 87.007988,150.477951 89.883179,149.878403 
	C93.846458,149.051895 98.684883,149.748291 101.005943,145.015305 
	C101.169006,144.747055 101.380699,144.525238 102.021507,144.502930 
	C103.123520,144.950897 104.020676,145.682022 104.539444,145.473206 
	C109.784775,143.361740 115.271202,141.612259 120.107994,138.770615 
	C131.279129,132.207504 139.012878,122.613342 143.029358,110.176826 
	C144.024094,110.057388 145.018829,109.937958 146.388458,109.810127 
	C146.756958,112.899567 146.750565,115.997398 146.632385,119.542526 
z"/>
<path fill="#A9F4D5" opacity="1.000000" stroke="none" 
	d="
M63.328949,147.066864 
	C60.406952,144.315018 58.078655,141.266647 55.186996,138.909332 
	C44.452705,130.158585 37.912453,119.054703 35.876358,105.393997 
	C35.003384,99.536964 34.326035,93.614838 34.179482,87.706909 
	C34.134277,85.884651 36.137348,84.011589 37.559479,82.079041 
	C38.286400,87.337662 38.656406,92.679024 39.046341,98.834671 
	C40.367577,104.563599 41.384716,109.577614 43.057957,114.362190 
	C44.457306,118.363571 46.142735,122.432312 48.548134,125.880630 
	C54.053177,133.772522 61.878643,139.054077 70.178238,143.725662 
	C71.489288,144.463608 72.083382,146.475296 73.008965,147.898071 
	C70.974396,147.968323 68.939819,148.038589 66.470604,148.122681 
	C65.245316,147.786865 64.454681,147.437210 63.328949,147.066864 
z"/>
<path fill="#AFF5D9" opacity="1.000000" stroke="none" 
	d="
M73.398422,147.966980 
	C72.083382,146.475296 71.489288,144.463608 70.178238,143.725662 
	C61.878643,139.054077 54.053177,133.772522 48.548134,125.880630 
	C46.142735,122.432312 44.457306,118.363571 43.057957,114.362190 
	C41.384716,109.577614 40.367577,104.563599 39.069374,99.247070 
	C40.527298,100.790443 41.982121,102.735703 43.720367,105.252823 
	C48.530495,123.121315 59.912685,134.187927 75.972885,141.003342 
	C76.003105,142.669479 76.033325,144.335602 76.056320,146.745422 
	C76.085175,147.705078 76.121262,147.921051 76.157356,148.137024 
	C75.367531,148.103302 74.577698,148.069595 73.398422,147.966980 
z"/>
<path fill="#C2F8E2" opacity="1.000000" stroke="none" 
	d="
M100.633972,145.073929 
	C98.684883,149.748291 93.846458,149.051895 89.883179,149.878403 
	C87.007988,150.477951 83.911697,150.017242 80.448944,150.046082 
	C79.334251,150.023178 78.684608,149.983521 77.713654,149.921844 
	C77.239433,149.485809 77.086540,149.071747 76.966736,148.327423 
	C84.847237,147.800385 92.861061,148.954956 100.633972,145.073929 
z"/>
<path fill="#78E6B8" opacity="1.000000" stroke="none" 
	d="
M76.300064,148.160858 
	C76.121262,147.921051 76.085175,147.705078 76.030319,147.160858 
	C76.266937,147.088867 76.522308,147.345123 76.754158,147.878281 
	C76.730629,148.155197 76.442772,148.184692 76.300064,148.160858 
z"/>
<path fill="#B4F6DB" opacity="1.000000" stroke="none" 
	d="
M142.593765,110.116837 
	C139.012878,122.613342 131.279129,132.207504 120.107994,138.770615 
	C115.271202,141.612259 109.784775,143.361740 104.539444,145.473206 
	C104.020676,145.682022 103.123520,144.950897 102.227966,144.398468 
	C102.851608,143.193832 103.649269,142.246765 105.058289,141.052414 
	C107.378120,139.195633 108.993080,137.470642 110.812035,135.997559 
	C117.051262,130.944717 123.695190,126.332298 129.505646,120.834206 
	C132.435211,118.062126 133.903229,113.745476 136.032120,110.127243 
	C138.074142,110.103775 140.116150,110.080307 142.593765,110.116837 
z"/>
<path fill="#B9F7DE" opacity="1.000000" stroke="none" 
	d="
M76.003555,140.605438 
	C59.912685,134.187927 48.530495,123.121315 43.997082,105.438797 
	C46.756721,106.670425 49.523079,108.287949 52.661900,110.315247 
	C54.665237,113.750900 55.988037,117.000237 57.988323,119.758202 
	C62.800705,126.393425 69.004074,131.367416 76.886154,134.025909 
	C76.602180,136.086441 76.318207,138.146988 76.003555,140.605438 
z"/>
<path fill="#C2F8E2" opacity="1.000000" stroke="none" 
	d="
M135.581512,110.079987 
	C133.903229,113.745476 132.435211,118.062126 129.505646,120.834206 
	C123.695190,126.332298 117.051262,130.944717 110.812035,135.997559 
	C108.993080,137.470642 107.378120,139.195633 105.331215,140.899231 
	C105.707710,138.611481 106.422638,136.229675 107.462196,133.338150 
	C108.200684,131.885635 108.614532,130.942810 109.365936,129.934006 
	C112.458771,127.755234 115.695641,126.042450 117.858902,123.437950 
	C121.290047,119.306969 124.003510,114.579895 127.020599,110.105011 
	C129.724045,110.080925 132.427475,110.056831 135.581512,110.079987 
z"/>
<path fill="#B7F7DD" opacity="1.000000" stroke="none" 
	d="
M46.433327,78.096283 
	C44.995277,71.227386 50.521194,67.487114 53.897602,63.143005 
	C57.695972,58.256004 62.776966,54.118793 67.955650,50.628120 
	C72.280205,47.713184 77.550797,46.201786 82.784088,44.079086 
	C82.228394,45.220806 81.291023,46.352261 79.912445,47.912132 
	C78.650490,49.563148 77.829742,50.785744 76.665306,52.071342 
	C74.251007,53.462559 72.252090,54.922371 70.097328,56.096111 
	C60.988716,61.057747 54.682041,68.411552 51.012962,78.075775 
	C49.624928,78.088806 48.236897,78.101830 46.433327,78.096283 
z"/>
<path fill="#C4FAE4" opacity="1.000000" stroke="none" 
	d="
M76.927292,133.581604 
	C69.004074,131.367416 62.800705,126.393425 57.988323,119.758202 
	C55.988037,117.000237 54.665237,113.750900 53.018898,110.358551 
	C53.445675,109.979919 53.887924,109.967758 54.827713,110.139725 
	C55.881668,110.222275 56.438080,110.120689 56.994492,110.019104 
	C57.740135,110.025299 58.485779,110.031494 59.676819,110.382957 
	C62.182770,113.027176 64.054497,115.538887 66.348503,117.574814 
	C69.721695,120.568520 73.396347,123.222557 76.942574,126.021294 
	C76.951195,128.393295 76.959816,130.765289 76.927292,133.581604 
z"/>
<path fill="#BDF8E0" opacity="1.000000" stroke="none" 
	d="
M108.752029,52.243660 
	C116.813103,51.098240 121.795761,56.772770 126.172729,61.325985 
	C130.906616,66.250481 133.436935,73.293236 136.913544,79.808029 
	C135.095078,79.652687 133.291443,79.101372 131.220718,77.936630 
	C126.324539,67.425926 120.306862,58.963573 108.944153,56.024673 
	C108.813835,54.846592 108.683510,53.668514 108.752029,52.243660 
z"/>
<path fill="#C0F9E2" opacity="1.000000" stroke="none" 
	d="
M51.440994,78.087677 
	C54.682041,68.411552 60.988716,61.057747 70.097328,56.096111 
	C72.252090,54.922371 74.251007,53.462559 76.640411,52.470699 
	C76.632088,55.204494 76.304977,57.601929 75.598656,60.018753 
	C64.888992,61.733147 61.380356,70.324684 57.012608,78.047707 
	C55.298080,78.064995 53.583557,78.082291 51.440994,78.087677 
z"/>
<path fill="#D3FDED" opacity="1.000000" stroke="none" 
	d="
M76.968056,125.552521 
	C73.396347,123.222557 69.721695,120.568520 66.348503,117.574814 
	C64.054497,115.538887 62.182770,113.027176 60.049431,110.396767 
	C64.288399,110.050407 68.602875,110.123665 72.910973,109.990402 
	C75.913071,109.897537 77.103188,111.186859 77.008667,114.138206 
	C76.891945,117.783134 76.988899,121.434921 76.968056,125.552521 
z"/>
<path fill="#CAFBE8" opacity="1.000000" stroke="none" 
	d="
M57.438656,78.059128 
	C61.380356,70.324684 64.888992,61.733147 75.851418,60.020592 
	C76.651726,60.003250 76.820061,60.003464 76.988396,60.003681 
	C76.983406,61.711525 76.978409,63.419369 76.605774,65.575775 
	C71.820145,70.040359 67.402168,74.056396 62.984188,78.072433 
	C61.277695,78.071808 59.571198,78.071182 57.438656,78.059128 
z"/>
<path fill="#CAFBE8" opacity="1.000000" stroke="none" 
	d="
M126.592346,110.069611 
	C124.003510,114.579895 121.290047,119.306969 117.858902,123.437950 
	C115.695641,126.042450 112.458771,127.755234 109.119812,129.931335 
	C108.536133,129.994659 108.044510,129.995316 108.044510,129.995316 
	C108.060081,128.292191 108.075653,126.589066 108.419922,124.353638 
	C111.779480,120.634079 114.851311,117.484344 117.820923,114.241013 
	C119.003082,112.949890 119.959061,111.451675 121.018005,110.047737 
	C122.733368,110.043228 124.448723,110.038719 126.592346,110.069611 
z"/>
<path fill="#C4FAE4" opacity="1.000000" stroke="none" 
	d="
M108.933594,56.438148 
	C120.306862,58.963573 126.324539,67.425926 130.958099,77.701584 
	C129.905029,78.079948 128.847504,78.079941 127.331696,77.719421 
	C122.422340,70.235252 117.399696,63.737598 108.949623,60.993824 
	C108.940758,59.613091 108.931892,58.232361 108.933594,56.438148 
z"/>
<path fill="#CAFBE8" opacity="1.000000" stroke="none" 
	d="
M108.749496,61.240829 
	C117.399696,63.737598 122.422340,70.235252 126.934631,77.707214 
	C125.268707,78.332024 123.541573,78.608521 121.346832,78.541595 
	C116.625153,73.454620 112.371078,68.711082 108.117004,63.967537 
	C108.261131,63.140968 108.405251,62.314400 108.749496,61.240829 
z"/>
<path fill="#D7FCEE" opacity="1.000000" stroke="none" 
	d="
M63.316628,78.287392 
	C67.402168,74.056396 71.820145,70.040359 76.593903,66.002411 
	C76.966835,66.476730 76.995041,66.972878 76.999512,67.469231 
	C77.099922,78.622810 75.132057,80.248497 63.316628,78.287392 
z"/>
<path fill="#D9FCEF" opacity="1.000000" stroke="none" 
	d="
M108.082336,64.434189 
	C112.371078,68.711082 116.625153,73.454620 120.962486,78.522713 
	C107.885948,79.389702 107.885948,79.389702 108.082336,64.434189 
z"/>
<path fill="#D9FCEF" opacity="1.000000" stroke="none" 
	d="
M120.552155,110.027634 
	C119.959061,111.451675 119.003082,112.949890 117.820923,114.241013 
	C114.851311,117.484344 111.779480,120.634079 108.438843,123.928444 
	C108.093864,123.373772 108.018776,122.711349 108.029335,122.050293 
	C108.255997,107.857323 106.000099,110.232071 120.552155,110.027634 
z"/>
<path fill="#D7FCEE" opacity="1.000000" stroke="none" 
	d="
M77.145630,59.654385 
	C76.820061,60.003464 76.651726,60.003250 76.230629,60.001198 
	C76.304977,57.601929 76.632088,55.204494 76.984100,52.407700 
	C77.829742,50.785744 78.650490,49.563148 79.753479,48.182419 
	C79.124771,51.784554 78.213821,55.544819 77.145630,59.654385 
z"/>
<path fill="#D9FCEF" opacity="1.000000" stroke="none" 
	d="
M107.821503,130.244843 
	C108.044510,129.995316 108.536133,129.994659 108.782257,129.997330 
	C108.614532,130.942810 108.200684,131.885635 107.496559,132.956940 
	C107.337021,132.221756 107.467758,131.358078 107.821503,130.244843 
z"/>
<path fill="#D9FCEF" opacity="1.000000" stroke="none" 
	d="
M143.710968,85.903801 
	C143.966187,86.474991 143.970856,86.921837 143.961197,87.704391 
	C143.297714,87.264900 142.648560,86.489708 141.972900,85.382812 
	C142.451050,85.293892 142.955734,85.536674 143.710968,85.903801 
z"/>
<path fill="#D3FDED" opacity="1.000000" stroke="none" 
	d="
M56.829128,109.845497 
	C56.438080,110.120689 55.881668,110.222275 55.159557,110.145828 
	C55.550495,109.869156 56.107128,109.770523 56.829128,109.845497 
z"/>
</svg>